<?xml version="1.0" encoding="utf-8"?>
<!-- Generator: Adobe Illustrator 19.2.1, SVG Export Plug-In . SVG Version: 6.00 Build 0)  -->
<svg version="1.1" id="Layer_1" xmlns="http://www.w3.org/2000/svg" xmlns:xlink="http://www.w3.org/1999/xlink" x="0px" y="0px"
	 viewBox="0 0 15 15.4" style="enable-background:new 0 0 15 15.4;" xml:space="preserve">
<style type="text/css">
	.st0{fill:#B4B6B6;}
</style>
<g>
	<path class="st0" d="M1.2,14.6c0,0.5-0.3,0.7-0.8,0.7c-0.2,0-0.3-0.2-0.4-0.7c0.1-0.5,0.4-0.7,0.8-0.7C1,13.9,1.1,14.2,1.2,14.6z
		 M1.2,0.8c0,0.5-0.2,0.7-0.5,0.7c-0.1,0-0.3-0.1-0.4-0.3C0.2,1,0.1,0.9,0.1,0.7c0-0.2,0.1-0.3,0.2-0.5C0.4,0.1,0.6,0,0.7,0
		C0.9,0,1.1,0.3,1.2,0.8z M5.7,7.4c0,0.2-0.7,0.5-2,1C3.2,8.6,2.8,8.7,2.5,8.7H1.9c-0.3,0-0.6-0.1-0.8-0.4C0.8,8.1,0.6,7.8,0.6,7.5
		c0-0.4,0.2-0.7,0.5-0.9C1.5,6.4,2,6.3,2.6,6.3C3,6.4,3.2,6.4,3.3,6.4C3.5,6.4,4.1,6.6,5,7C5.4,7.2,5.7,7.4,5.7,7.4z M2.8,2.2
		c0,0.1-0.1,0.2-0.2,0.3C2.5,2.7,2.4,2.7,2.3,2.7c-0.3,0-0.5-0.1-0.5-0.4C1.8,2.2,1.9,2,2,1.9c0.1-0.2,0.3-0.2,0.3-0.2
		C2.5,1.6,2.6,1.8,2.8,2.2z M2.8,13.1c0,0.1-0.1,0.2-0.2,0.4c-0.1,0.2-0.2,0.3-0.3,0.3c-0.2,0-0.3-0.2-0.4-0.7
		c0-0.3,0.1-0.5,0.3-0.5c0.1,0,0.3,0.1,0.4,0.2C2.7,12.9,2.8,13,2.8,13.1z M6.4,8.6c0,0.2-0.4,0.8-1.2,1.8c-0.8,1-1.3,1.5-1.5,1.5
		c-0.2,0-0.3-0.2-0.5-0.5c0.1-0.2,0.3-0.6,0.8-1.1c0.6-0.6,1.3-1.3,2.3-2C6.4,8.5,6.4,8.5,6.4,8.6z M6.1,6.2C5.3,5.7,4.6,5.1,4,4.6
		C3.6,4.1,3.3,3.9,3.3,3.7c0-0.1,0-0.2,0.1-0.3c0.1-0.1,0.2-0.1,0.3-0.1c0.2,0,0.4,0.2,0.9,0.7C5.1,4.6,5.6,5.3,6.1,6.2z M8.6,12.4
		c0,0.5-0.1,0.9-0.4,1.3c-0.3,0.4-0.6,0.6-0.9,0.6c-0.3,0-0.6-0.2-0.8-0.5s-0.3-0.8-0.3-1.3c0-0.4,0.2-1,0.5-1.9
		C7,9.6,7.3,9.1,7.6,8.9C8.3,10.2,8.6,11.4,8.6,12.4z M8.7,3.2c0,0.4-0.2,1.1-0.7,2.2C7.8,5.9,7.6,6.2,7.5,6.2c-0.2,0-0.4-0.3-0.6-1
		C6.5,4.1,6.4,3.3,6.4,2.8c0-0.4,0.1-0.8,0.4-1.2C7,1.2,7.2,1.1,7.5,1.1c0.4,0,0.6,0.2,0.8,0.6C8.6,2,8.7,2.5,8.7,3.2z M11.5,3.7
		c0,0.3-0.9,1.1-2.7,2.5C8.8,6,9,5.6,9.4,5.1c0.4-0.6,0.8-1,1.2-1.4c0.3-0.3,0.5-0.4,0.6-0.4C11.4,3.3,11.5,3.4,11.5,3.7z M13.8,7.5
		c0,0.4-0.2,0.7-0.5,0.9s-0.7,0.3-1.3,0.3c-0.8,0-1.9-0.4-3.2-1.1V7.4c0-0.1,0.3-0.3,0.8-0.5c1.1-0.4,2-0.6,2.6-0.6
		c0.4,0,0.8,0.1,1.1,0.3C13.7,6.9,13.8,7.2,13.8,7.5z M11.4,11.2c0,0.1-0.1,0.3-0.3,0.4c-0.6-0.4-1.1-0.9-1.6-1.4
		C9.1,9.7,9,9.5,9,9.4V9.1h0.2c0.2,0,0.6,0.3,1.3,1C11.1,10.7,11.4,11.1,11.4,11.2z M13.5,2.1c0,0.2-0.1,0.4-0.2,0.6
		C13.2,2.9,13,3,12.9,3c-0.4,0-0.6-0.2-0.6-0.7c0-0.2,0.1-0.4,0.2-0.5c0.1-0.1,0.3-0.2,0.4-0.2c0.1,0,0.2,0.1,0.4,0.2
		C13.4,1.9,13.5,2,13.5,2.1z M13.3,12.5c0,0.4-0.2,0.7-0.5,0.7c-0.4,0-0.6-0.2-0.6-0.6c0-0.1,0.1-0.2,0.2-0.4
		c0.2-0.1,0.3-0.2,0.4-0.2C13.2,12.1,13.3,12.2,13.3,12.5z M14.8,14.2c0,0.5-0.2,0.7-0.5,0.7c-0.4,0-0.6-0.2-0.6-0.7
		c0-0.1,0.1-0.2,0.2-0.4c0.1-0.1,0.3-0.2,0.4-0.2C14.6,13.6,14.8,13.8,14.8,14.2z M15,0.6c0,0.4-0.2,0.6-0.7,0.6
		c-0.3,0-0.4-0.1-0.4-0.4c0-0.5,0.2-0.7,0.5-0.7c0.1,0,0.3,0.1,0.4,0.2C14.9,0.4,15,0.5,15,0.6z"/>
</g>
</svg>
