<?xml version="1.0" encoding="utf-8"?>
<!-- Generator: Adobe Illustrator 19.2.1, SVG Export Plug-In . SVG Version: 6.00 Build 0)  -->
<svg version="1.1" id="Layer_1" xmlns="http://www.w3.org/2000/svg" xmlns:xlink="http://www.w3.org/1999/xlink" x="0px" y="0px"
	 viewBox="0 0 25 25.6" style="enable-background:new 0 0 25 25.6;" xml:space="preserve">
<style type="text/css">
	.st0{fill:#F8F4F0;}
</style>
<g>
	<path class="st0" d="M2.1,24.4c0,0.8-0.4,1.2-1.3,1.2c-0.3,0-0.6-0.4-0.7-1.2c0.2-0.8,0.6-1.2,1.3-1.2C1.6,23.2,1.9,23.6,2.1,24.4z
		 M2,1.3C1.9,2.1,1.6,2.5,1.2,2.5C1,2.5,0.7,2.3,0.5,2S0.1,1.4,0.1,1.2c0-0.3,0.1-0.5,0.4-0.8C0.7,0.1,1,0,1.2,0
		C1.6,0,1.8,0.4,2,1.3z M9.4,12.4c0,0.3-1.1,0.9-3.3,1.7c-0.8,0.3-1.5,0.4-2.1,0.4H3.2c-0.5,0-0.9-0.2-1.4-0.6S1.1,13,1.1,12.6
		c0-0.6,0.3-1.1,0.9-1.5s1.4-0.6,2.4-0.6c0.5,0.1,0.9,0.2,1.1,0.2c0.4,0,1.3,0.3,2.7,1C9,12,9.4,12.3,9.4,12.4z M4.7,3.7
		c0,0.2-0.1,0.4-0.3,0.5S4,4.5,3.8,4.5C3.2,4.5,3,4.3,3,3.8c0-0.2,0.1-0.4,0.4-0.7C3.6,2.8,3.8,2.7,4,2.7C4.1,2.7,4.4,3.1,4.7,3.7z
		 M4.6,21.8c0,0.2-0.1,0.4-0.4,0.7C4,22.8,3.8,23,3.7,23c-0.3,0-0.5-0.4-0.7-1.2C3,21.3,3.2,21,3.5,21c0.2,0,0.4,0.1,0.7,0.3
		C4.5,21.4,4.6,21.6,4.6,21.8z M10.7,14.3c0,0.3-0.7,1.4-2,3.1C7.3,19.1,6.5,20,6.2,20s-0.6-0.3-0.8-0.8c0.1-0.3,0.6-0.9,1.4-1.8
		c1-1,2.2-2.1,3.8-3.3C10.6,14.1,10.7,14.2,10.7,14.3z M10.2,10.3C8.9,9.4,7.7,8.6,6.7,7.6C6,6.9,5.6,6.4,5.6,6.2
		c0-0.1,0.1-0.3,0.2-0.4s0.3-0.2,0.5-0.2C6.5,5.6,7,6,7.7,6.7C8.5,7.7,9.4,8.8,10.2,10.3z M14.3,20.6c0,0.8-0.2,1.5-0.7,2.2
		c-0.4,0.6-0.9,0.9-1.5,0.9c-0.5,0-0.9-0.3-1.3-0.9c-0.4-0.6-0.6-1.3-0.6-2.1c0-0.6,0.3-1.7,0.8-3.2c0.6-1.5,1.1-2.5,1.5-2.7
		C13.8,17,14.3,18.9,14.3,20.6z M14.5,5.3c0,0.6-0.4,1.8-1.1,3.7c-0.4,0.9-0.7,1.4-0.9,1.4c-0.3,0-0.7-0.6-1-1.7
		c-0.6-1.9-0.8-3.2-0.8-4.1c0-0.7,0.2-1.4,0.6-2s0.9-0.9,1.3-0.9c0.6,0,1.1,0.3,1.4,0.9C14.3,3.3,14.5,4.2,14.5,5.3z M19.2,6.2
		c0,0.5-1.5,1.9-4.5,4.1c0-0.3,0.3-1,1-1.9c0.7-0.9,1.3-1.7,1.9-2.3c0.5-0.5,0.8-0.7,1-0.7C19,5.5,19.2,5.7,19.2,6.2z M23,12.5
		c0,0.6-0.3,1.1-0.8,1.5S21,14.5,20,14.5c-1.4,0-3.2-0.6-5.4-1.8v-0.3c0-0.2,0.5-0.4,1.4-0.8c1.8-0.7,3.3-1,4.3-1
		c0.7,0,1.3,0.2,1.9,0.6S23,12,23,12.5z M19,18.7c0,0.2-0.2,0.4-0.5,0.6c-1-0.7-1.9-1.5-2.6-2.4c-0.6-0.7-0.9-1.1-0.9-1.2v-0.4h0.3
		c0.3,0,1.1,0.5,2.2,1.6C18.5,17.9,19,18.5,19,18.7z M22.5,3.5c0,0.4-0.1,0.7-0.3,1C21.9,4.9,21.7,5,21.4,5c-0.7,0-1-0.4-1-1.2
		c0-0.3,0.1-0.6,0.3-0.9c0.2-0.2,0.5-0.4,0.7-0.4s0.4,0.1,0.6,0.4C22.4,3.2,22.5,3.4,22.5,3.5z M22.2,20.9c0,0.7-0.3,1.1-0.8,1.1
		c-0.7,0-1-0.3-1-1c0-0.2,0.1-0.4,0.4-0.6c0.2-0.2,0.5-0.3,0.7-0.3C21.9,20.1,22.2,20.4,22.2,20.9z M24.7,23.7
		c0,0.8-0.3,1.1-0.9,1.1s-0.9-0.4-0.9-1.2c0-0.2,0.1-0.4,0.3-0.6c0.2-0.2,0.4-0.3,0.6-0.3C24.4,22.7,24.7,23,24.7,23.7z M25,1
		c0,0.7-0.4,1-1.2,1c-0.4,0-0.6-0.2-0.6-0.7c0-0.8,0.3-1.2,0.9-1.2c0.2,0,0.5,0.1,0.7,0.3C24.9,0.7,25,0.8,25,1z"/>
</g>
</svg>
