<?xml version="1.0" encoding="utf-8"?>
<!-- Generator: Adobe Illustrator 19.1.0, SVG Export Plug-In . SVG Version: 6.00 Build 0)  -->
<svg version="1.1" id="Layer_1" xmlns="http://www.w3.org/2000/svg" xmlns:xlink="http://www.w3.org/1999/xlink" x="0px" y="0px"
	 viewBox="0 0 102.8 89.1" style="enable-background:new 0 0 102.8 89.1;" xml:space="preserve">
<style type="text/css">
	.st0{fill:none;stroke:#666666;stroke-width:2.7778;stroke-miterlimit:10;}
</style>
<polygon class="st0" points="38.3,1.4 45,8.3 31.4,21.9 17.9,8.2 24.5,1.4 "/>
<line class="st0" x1="17.9" y1="8.2" x2="45" y2="8.3"/>
<polyline class="st0" points="38.3,1.4 31.5,7 24.5,2 "/>
<path class="st0" d="M9.6,37.7c5.4-5.6,13.1-9.4,21.5-9.4c7.5,0,15,3.1,20.2,7.6"/>
<path class="st0" d="M51.9,79.2c-5.4,5.2-12.7,8.4-20.8,8.4C14.7,87.7,1.4,74.4,1.4,58"/>
<path class="st0" d="M60.8,58c0,6.8-2.3,13.1-6.1,18.1"/>
<path class="st0" d="M9.6,37.7c3.6-7.3,9.5-11.6,17-14.8l-3.9-4.2C9.5,25.4,1.4,38,1.4,58"/>
<path class="st0" d="M51.3,35.8c-3.7-6.3-9-10.1-15.9-13l3.9-4.2C52.5,25.4,60.8,38,60.8,58"/>
<path class="st0" d="M48.1,77c-4.5,4-10.5,6.5-17,6.5C17,83.5,5.5,72.1,5.5,58S17,32.4,31.1,32.4S56.7,43.8,56.7,58
	c0,5.5-1.8,10.7-4.8,14.9"/>
<path class="st0" d="M55.6,32.9c4.6-3,10.1-4.7,16.1-4.7c16.4,0,29.7,13.3,29.7,29.7S88.1,87.7,71.7,87.7S42,74.4,42,58
	c0-7.1,2.5-13.6,6.6-18.7"/>
<path class="st0" d="M56.9,37.1c4.2-3,9.3-4.7,14.8-4.7c14.1,0,25.6,11.4,25.6,25.6S85.8,83.5,71.7,83.5S46.1,72.1,46.1,58
	c0-5.9,2-11.3,5.3-15.6"/>
</svg>
